<?xml version="1.0" encoding="UTF-8" standalone="yes"?>
<svg xmlns="http://www.w3.org/2000/svg" xmlns:xlink="http://www.w3.org/1999/xlink" width="26" height="26" viewBox="0 0 26 26" version="1.1">
  <g id="surface1">
    <path style=" stroke:none;fill-rule:nonzero;fill:rgb(100%,100%,100%);fill-opacity:1;" d="M 0 13 C 0 5.820312 5.820312 0 13 0 C 20.179688 0 26 5.820312 26 13 C 26 20.179688 20.179688 26 13 26 C 5.820312 26 0 20.179688 0 13 Z M 0 13 "/>
    <path style=" stroke:none;fill-rule:evenodd;fill:rgb(4.313726%,4.313726%,3.921569%);fill-opacity:1;" d="M 19.925781 11.082031 C 19.925781 11.085938 19.925781 11.089844 19.929688 11.09375 C 19.933594 11.121094 19.933594 11.144531 19.933594 11.171875 L 19.933594 15.261719 C 19.933594 15.289062 19.933594 15.3125 19.929688 15.339844 C 19.925781 15.34375 19.925781 15.347656 19.925781 15.351562 L 19.925781 15.355469 L 19.921875 15.363281 C 19.921875 15.378906 19.917969 15.394531 19.914062 15.410156 C 19.914062 15.414062 19.914062 15.417969 19.910156 15.417969 C 19.910156 15.421875 19.910156 15.425781 19.90625 15.429688 L 19.90625 15.441406 L 19.902344 15.445312 C 19.898438 15.457031 19.894531 15.46875 19.890625 15.480469 C 19.886719 15.492188 19.882812 15.5 19.875 15.511719 C 19.871094 15.523438 19.863281 15.535156 19.855469 15.546875 C 19.855469 15.554688 19.851562 15.558594 19.847656 15.566406 L 19.839844 15.574219 C 19.832031 15.585938 19.824219 15.597656 19.816406 15.609375 C 19.808594 15.617188 19.804688 15.628906 19.796875 15.636719 C 19.789062 15.644531 19.777344 15.65625 19.765625 15.667969 C 19.757812 15.675781 19.753906 15.683594 19.746094 15.6875 C 19.734375 15.699219 19.722656 15.707031 19.710938 15.714844 L 19.703125 15.722656 C 19.699219 15.726562 19.691406 15.730469 19.6875 15.734375 C 19.683594 15.738281 19.683594 15.738281 19.679688 15.738281 C 19.679688 15.742188 19.679688 15.742188 19.675781 15.742188 L 13.535156 19.835938 C 13.441406 19.902344 13.328125 19.933594 13.214844 19.933594 C 13.105469 19.933594 12.992188 19.902344 12.894531 19.835938 L 6.757812 15.742188 C 6.753906 15.742188 6.753906 15.742188 6.753906 15.738281 C 6.75 15.738281 6.75 15.738281 6.746094 15.734375 C 6.738281 15.730469 6.730469 15.722656 6.722656 15.714844 C 6.710938 15.707031 6.699219 15.699219 6.6875 15.6875 C 6.679688 15.683594 6.671875 15.675781 6.664062 15.667969 C 6.65625 15.65625 6.644531 15.644531 6.636719 15.636719 C 6.628906 15.628906 6.625 15.617188 6.617188 15.609375 C 6.609375 15.597656 6.601562 15.585938 6.59375 15.574219 C 6.585938 15.566406 6.582031 15.558594 6.578125 15.546875 C 6.570312 15.535156 6.5625 15.523438 6.558594 15.511719 L 6.550781 15.5 C 6.550781 15.496094 6.546875 15.488281 6.542969 15.480469 C 6.539062 15.46875 6.535156 15.457031 6.53125 15.445312 L 6.527344 15.441406 L 6.527344 15.429688 C 6.523438 15.425781 6.523438 15.417969 6.519531 15.410156 C 6.515625 15.394531 6.511719 15.378906 6.511719 15.363281 L 6.507812 15.355469 C 6.507812 15.351562 6.507812 15.34375 6.503906 15.339844 C 6.503906 15.3125 6.5 15.289062 6.5 15.261719 L 6.5 11.171875 C 6.5 11.144531 6.503906 11.121094 6.503906 11.09375 C 6.507812 11.089844 6.507812 11.082031 6.507812 11.078125 L 6.511719 11.070312 C 6.511719 11.054688 6.515625 11.035156 6.519531 11.023438 C 6.523438 11.015625 6.523438 11.007812 6.527344 11 L 6.527344 10.992188 C 6.535156 10.980469 6.539062 10.964844 6.542969 10.953125 C 6.546875 10.941406 6.550781 10.933594 6.554688 10.925781 L 6.558594 10.921875 C 6.5625 10.910156 6.570312 10.898438 6.578125 10.886719 C 6.582031 10.875 6.585938 10.867188 6.59375 10.859375 C 6.601562 10.847656 6.609375 10.835938 6.617188 10.824219 C 6.625 10.816406 6.628906 10.804688 6.636719 10.796875 C 6.644531 10.789062 6.65625 10.777344 6.664062 10.765625 L 6.671875 10.761719 C 6.675781 10.757812 6.683594 10.75 6.6875 10.746094 C 6.699219 10.734375 6.710938 10.726562 6.722656 10.71875 C 6.730469 10.710938 6.738281 10.703125 6.746094 10.695312 C 6.75 10.695312 6.75 10.695312 6.753906 10.695312 C 6.753906 10.691406 6.753906 10.691406 6.757812 10.691406 L 12.894531 6.597656 C 13.089844 6.46875 13.34375 6.46875 13.535156 6.597656 L 19.675781 10.691406 C 19.679688 10.691406 19.679688 10.691406 19.679688 10.695312 L 19.683594 10.695312 C 19.683594 10.695312 19.683594 10.695312 19.6875 10.695312 L 19.691406 10.703125 L 19.695312 10.707031 L 19.703125 10.710938 L 19.710938 10.71875 C 19.722656 10.726562 19.734375 10.734375 19.746094 10.746094 C 19.75 10.75 19.753906 10.753906 19.761719 10.761719 L 19.765625 10.765625 C 19.777344 10.777344 19.789062 10.789062 19.796875 10.796875 C 19.804688 10.804688 19.808594 10.816406 19.816406 10.824219 C 19.824219 10.835938 19.832031 10.847656 19.839844 10.859375 L 19.84375 10.867188 C 19.847656 10.871094 19.851562 10.878906 19.855469 10.886719 C 19.863281 10.898438 19.871094 10.910156 19.875 10.921875 C 19.882812 10.933594 19.886719 10.941406 19.890625 10.953125 C 19.894531 10.964844 19.898438 10.980469 19.90625 10.992188 C 19.90625 10.996094 19.90625 11 19.90625 11.003906 C 19.910156 11.007812 19.910156 11.015625 19.914062 11.023438 C 19.917969 11.035156 19.921875 11.054688 19.921875 11.070312 L 19.925781 11.074219 Z M 18.316406 11.171875 L 13.792969 8.15625 L 13.792969 10.847656 L 16.296875 12.523438 Z M 12.640625 8.15625 L 12.640625 10.847656 L 10.136719 12.523438 L 8.117188 11.171875 Z M 9.097656 13.214844 L 7.65625 12.25 L 7.65625 14.183594 Z M 12.640625 18.277344 L 8.117188 15.261719 L 10.136719 13.910156 L 12.640625 15.585938 Z M 11.175781 13.214844 L 13.214844 14.582031 L 15.257812 13.214844 L 13.214844 11.851562 Z M 13.792969 18.277344 L 13.792969 15.585938 L 16.296875 13.910156 L 18.316406 15.261719 Z M 17.335938 13.214844 L 18.777344 14.183594 L 18.777344 12.25 Z M 17.335938 13.214844 "/>
  </g>
</svg>