<?xml version="1.0" encoding="UTF-8" standalone="yes"?>
<svg xmlns="http://www.w3.org/2000/svg" xmlns:xlink="http://www.w3.org/1999/xlink" width="26" height="26" viewBox="0 0 26 26" version="1.1">
  <defs>
    <radialGradient id="radial0" gradientUnits="userSpaceOnUse" cx="0" cy="0" fx="0" fy="0" r="1" gradientTransform="matrix(9.077967,0.405055,-1.114293,24.973178,24.538638,6.505092)">
      <stop offset="0.045" style="stop-color:rgb(100%,91.764706%,0%);stop-opacity:1;"/>
      <stop offset="0.12" style="stop-color:rgb(100%,87.058824%,0%);stop-opacity:1;"/>
      <stop offset="0.254" style="stop-color:rgb(100%,74.901962%,0%);stop-opacity:1;"/>
      <stop offset="0.429" style="stop-color:rgb(100%,55.686277%,0%);stop-opacity:1;"/>
      <stop offset="0.769" style="stop-color:rgb(100%,15.294118%,17.647059%);stop-opacity:1;"/>
      <stop offset="0.872" style="stop-color:rgb(87.843138%,14.509805%,35.294119%);stop-opacity:1;"/>
      <stop offset="0.953" style="stop-color:rgb(80.000001%,14.117648%,46.666667%);stop-opacity:1;"/>
      <stop offset="1" style="stop-color:rgb(76.862746%,14.117648%,50.980395%);stop-opacity:1;"/>
    </radialGradient>
    <radialGradient id="radial1" gradientUnits="userSpaceOnUse" cx="0" cy="0" fx="0" fy="0" r="1" gradientTransform="matrix(25.61038,0,0,25.746933,18.063229,5.103188)">
      <stop offset="0" style="stop-color:rgb(0%,80.000001%,85.490197%);stop-opacity:1;"/>
      <stop offset="0.22" style="stop-color:rgb(0%,51.372552%,100%);stop-opacity:1;"/>
      <stop offset="0.261" style="stop-color:rgb(0%,47.843137%,97.647059%);stop-opacity:1;"/>
      <stop offset="0.33" style="stop-color:rgb(0%,37.64706%,90.980393%);stop-opacity:1;"/>
      <stop offset="0.333" style="stop-color:rgb(0%,37.254903%,90.588236%);stop-opacity:1;"/>
      <stop offset="0.438" style="stop-color:rgb(14.901961%,22.352941%,67.843139%);stop-opacity:1;"/>
      <stop offset="0.522" style="stop-color:rgb(25.098041%,11.764706%,51.764709%);stop-opacity:1;"/>
      <stop offset="0.566" style="stop-color:rgb(29.019609%,7.843138%,45.882353%);stop-opacity:1;"/>
    </radialGradient>
    <radialGradient id="radial2" gradientUnits="userSpaceOnUse" cx="0" cy="0" fx="0" fy="0" r="1" gradientTransform="matrix(8.596204,0.867381,-0.802272,7.950943,26.771604,16.790367)">
      <stop offset="0.003" style="stop-color:rgb(100%,91.764706%,0%);stop-opacity:1;"/>
      <stop offset="0.497" style="stop-color:rgb(100%,15.294118%,17.647059%);stop-opacity:1;"/>
      <stop offset="1" style="stop-color:rgb(76.862746%,14.117648%,50.980395%);stop-opacity:1;"/>
    </radialGradient>
    <radialGradient id="radial3" gradientUnits="userSpaceOnUse" cx="0" cy="0" fx="0" fy="0" r="1" gradientTransform="matrix(14.354997,1.448451,-2.655904,26.321563,26.825716,8.469229)">
      <stop offset="0.003" style="stop-color:rgb(100%,91.37255%,0%);stop-opacity:1;"/>
      <stop offset="0.157" style="stop-color:rgb(100%,68.627453%,5.490196%);stop-opacity:1;"/>
      <stop offset="0.316" style="stop-color:rgb(100%,47.843137%,10.588235%);stop-opacity:1;"/>
      <stop offset="0.472" style="stop-color:rgb(100%,30.588236%,14.901961%);stop-opacity:1;"/>
      <stop offset="0.621" style="stop-color:rgb(100%,17.254902%,18.039216%);stop-opacity:1;"/>
      <stop offset="0.762" style="stop-color:rgb(100%,7.843138%,20.392157%);stop-opacity:1;"/>
      <stop offset="0.892" style="stop-color:rgb(100%,1.960784%,21.960784%);stop-opacity:1;"/>
      <stop offset="1" style="stop-color:rgb(100%,0%,22.352941%);stop-opacity:1;"/>
    </radialGradient>
    <radialGradient id="radial4" gradientUnits="userSpaceOnUse" cx="0" cy="0" fx="0" fy="0" r="1" gradientTransform="matrix(13.172261,1.329106,-0.727004,7.205065,27.513472,21.980834)">
      <stop offset="0.003" style="stop-color:rgb(100%,15.294118%,17.647059%);stop-opacity:1;"/>
      <stop offset="0.497" style="stop-color:rgb(76.862746%,14.117648%,50.980395%);stop-opacity:1;"/>
      <stop offset="0.986" style="stop-color:rgb(38.431373%,2.745098%,0%);stop-opacity:1;"/>
    </radialGradient>
    <radialGradient id="radial5" gradientUnits="userSpaceOnUse" cx="0" cy="0" fx="0" fy="0" r="1" gradientTransform="matrix(20.667347,0,0,21.54035,19.438953,10.411591)">
      <stop offset="0.156" style="stop-color:rgb(100%,91.764706%,0%);stop-opacity:1;"/>
      <stop offset="0.231" style="stop-color:rgb(100%,87.058824%,0%);stop-opacity:1;"/>
      <stop offset="0.365" style="stop-color:rgb(100%,74.901962%,0%);stop-opacity:1;"/>
      <stop offset="0.541" style="stop-color:rgb(100%,55.686277%,0%);stop-opacity:1;"/>
      <stop offset="0.763" style="stop-color:rgb(100%,15.294118%,17.647059%);stop-opacity:1;"/>
      <stop offset="0.796" style="stop-color:rgb(97.647059%,14.117648%,20%);stop-opacity:1;"/>
      <stop offset="0.841" style="stop-color:rgb(91.37255%,10.980392%,27.058825%);stop-opacity:1;"/>
      <stop offset="0.893" style="stop-color:rgb(81.176472%,5.490196%,38.431373%);stop-opacity:1;"/>
      <stop offset="0.935" style="stop-color:rgb(70.980394%,0%,49.803922%);stop-opacity:1;"/>
    </radialGradient>
    <radialGradient id="radial6" gradientUnits="userSpaceOnUse" cx="0" cy="0" fx="0" fy="0" r="1" gradientTransform="matrix(24.404467,0,0,61.552293,17.884207,0.0340573)">
      <stop offset="0.279" style="stop-color:rgb(100%,91.764706%,0%);stop-opacity:1;"/>
      <stop offset="0.402" style="stop-color:rgb(100%,86.666667%,0%);stop-opacity:1;"/>
      <stop offset="0.63" style="stop-color:rgb(100%,72.941178%,0%);stop-opacity:1;"/>
      <stop offset="0.856" style="stop-color:rgb(100%,56.862748%,0%);stop-opacity:1;"/>
      <stop offset="0.933" style="stop-color:rgb(100%,40.392157%,6.666667%);stop-opacity:1;"/>
      <stop offset="0.994" style="stop-color:rgb(100%,29.019609%,11.372549%);stop-opacity:1;"/>
    </radialGradient>
    <linearGradient id="linear0" gradientUnits="userSpaceOnUse" x1="41.767601" y1="30.6154" x2="31.376801" y2="0.42994" gradientTransform="matrix(0.541667,0,0,0.541667,0,0)">
      <stop offset="0" style="stop-color:rgb(0%,5.882353%,26.274511%);stop-opacity:0.4;"/>
      <stop offset="0.485" style="stop-color:rgb(0%,9.803922%,38.431373%);stop-opacity:0.172549;"/>
      <stop offset="1" style="stop-color:rgb(0%,12.54902%,47.450981%);stop-opacity:0.0117647;"/>
    </linearGradient>
    <linearGradient id="linear1" gradientUnits="userSpaceOnUse" x1="10.879" y1="27.1889" x2="28.2911" y2="25.174101" gradientTransform="matrix(0.541667,0,0,0.541667,0,0)">
      <stop offset="0" style="stop-color:rgb(76.862746%,14.117648%,50.980395%);stop-opacity:0.501961;"/>
      <stop offset="0.474" style="stop-color:rgb(100%,15.294118%,17.647059%);stop-opacity:0.501961;"/>
      <stop offset="0.486" style="stop-color:rgb(100%,17.254902%,17.254902%);stop-opacity:0.513726;"/>
      <stop offset="0.675" style="stop-color:rgb(100%,47.843137%,10.196079%);stop-opacity:0.721569;"/>
      <stop offset="0.829" style="stop-color:rgb(100%,69.803923%,5.098039%);stop-opacity:0.870588;"/>
      <stop offset="0.942" style="stop-color:rgb(100%,83.92157%,1.960784%);stop-opacity:0.964706;"/>
      <stop offset="1" style="stop-color:rgb(100%,89.019608%,0.784314%);stop-opacity:1;"/>
    </linearGradient>
    <linearGradient id="linear2" gradientUnits="userSpaceOnUse" x1="10.3819" y1="11.2172" x2="6.6965" y2="5.21941" gradientTransform="matrix(0.541667,0,0,0.541667,0,0)">
      <stop offset="0" style="stop-color:rgb(53.725493%,8.235294%,31.764707%);stop-opacity:0.6;"/>
      <stop offset="1" style="stop-color:rgb(76.862746%,14.117648%,50.980395%);stop-opacity:0.0117647;"/>
    </linearGradient>
    <linearGradient id="linear3" gradientUnits="userSpaceOnUse" x1="9.66495" y1="25.6091" x2="14.9427" y2="29.6462" gradientTransform="matrix(0.541667,0,0,0.541667,0,0)">
      <stop offset="0.005" style="stop-color:rgb(53.725493%,8.235294%,31.764707%);stop-opacity:0.501961;"/>
      <stop offset="0.484" style="stop-color:rgb(100%,15.294118%,17.647059%);stop-opacity:0.501961;"/>
      <stop offset="1" style="stop-color:rgb(100%,15.294118%,17.647059%);stop-opacity:0.0117647;"/>
    </linearGradient>
    <linearGradient id="linear4" gradientUnits="userSpaceOnUse" x1="24.7127" y1="32.826698" x2="24.757299" y2="29.193399" gradientTransform="matrix(0.541667,0,0,0.541667,0,0)">
      <stop offset="0" style="stop-color:rgb(76.862746%,14.117648%,50.980395%);stop-opacity:1;"/>
      <stop offset="0.083" style="stop-color:rgb(76.862746%,14.117648%,50.980395%);stop-opacity:0.811765;"/>
      <stop offset="0.206" style="stop-color:rgb(76.862746%,14.117648%,50.980395%);stop-opacity:0.564706;"/>
      <stop offset="0.328" style="stop-color:rgb(76.862746%,14.117648%,50.980395%);stop-opacity:0.360784;"/>
      <stop offset="0.447" style="stop-color:rgb(76.862746%,14.117648%,50.980395%);stop-opacity:0.203922;"/>
      <stop offset="0.562" style="stop-color:rgb(76.862746%,14.117648%,50.980395%);stop-opacity:0.0901961;"/>
      <stop offset="0.673" style="stop-color:rgb(76.862746%,14.117648%,50.980395%);stop-opacity:0.0235294;"/>
      <stop offset="0.773" style="stop-color:rgb(76.862746%,14.117648%,50.980395%);stop-opacity:0.0117647;"/>
    </linearGradient>
    <linearGradient id="linear5" gradientUnits="userSpaceOnUse" x1="23.6591" y1="18.091499" x2="48.674599" y2="29.750401" gradientTransform="matrix(0.541667,0,0,0.541667,0,0)">
      <stop offset="0" style="stop-color:rgb(100%,94.509804%,30.980393%);stop-opacity:1;"/>
      <stop offset="0.268" style="stop-color:rgb(100%,93.333334%,29.803923%);stop-opacity:1;"/>
      <stop offset="0.452" style="stop-color:rgb(100%,90.196079%,26.274511%);stop-opacity:1;"/>
      <stop offset="0.612" style="stop-color:rgb(100%,84.705883%,20.392157%);stop-opacity:1;"/>
      <stop offset="0.757" style="stop-color:rgb(100%,76.862746%,11.764706%);stop-opacity:1;"/>
      <stop offset="0.892" style="stop-color:rgb(100%,67.058825%,0.784314%);stop-opacity:1;"/>
      <stop offset="0.902" style="stop-color:rgb(100%,66.274512%,0%);stop-opacity:1;"/>
      <stop offset="0.949" style="stop-color:rgb(100%,62.7451%,0%);stop-opacity:1;"/>
      <stop offset="1" style="stop-color:rgb(100%,56.862748%,0%);stop-opacity:1;"/>
    </linearGradient>
    <linearGradient id="linear6" gradientUnits="userSpaceOnUse" x1="25.1199" y1="17.2549" x2="17.528299" y2="36.0042" gradientTransform="matrix(0.541667,0,0,0.541667,0,0)">
      <stop offset="0" style="stop-color:rgb(100%,55.686277%,0%);stop-opacity:1;"/>
      <stop offset="0.04" style="stop-color:rgb(100%,55.686277%,0%);stop-opacity:0.858824;"/>
      <stop offset="0.084" style="stop-color:rgb(100%,55.686277%,0%);stop-opacity:0.729412;"/>
      <stop offset="0.13" style="stop-color:rgb(100%,55.686277%,0%);stop-opacity:0.627451;"/>
      <stop offset="0.178" style="stop-color:rgb(100%,55.686277%,0%);stop-opacity:0.556863;"/>
      <stop offset="0.227" style="stop-color:rgb(100%,55.686277%,0%);stop-opacity:0.513726;"/>
      <stop offset="0.282" style="stop-color:rgb(100%,55.686277%,0%);stop-opacity:0.501961;"/>
      <stop offset="0.389" style="stop-color:rgb(100%,55.686277%,0%);stop-opacity:0.478431;"/>
      <stop offset="0.524" style="stop-color:rgb(100%,55.686277%,0%);stop-opacity:0.415686;"/>
      <stop offset="0.676" style="stop-color:rgb(100%,55.686277%,0%);stop-opacity:0.313726;"/>
      <stop offset="0.838" style="stop-color:rgb(100%,55.686277%,0%);stop-opacity:0.172549;"/>
      <stop offset="1" style="stop-color:rgb(100%,55.686277%,0%);stop-opacity:0.0117647;"/>
    </linearGradient>
  </defs>
  <g id="surface1">
    <path style=" stroke:none;fill-rule:nonzero;fill:url(#radial0);" d="M 20.894531 2.417969 C 20.261719 3.15625 19.96875 4.8125 20.609375 6.496094 C 21.25 8.175781 22.234375 7.8125 22.847656 9.523438 C 23.65625 11.785156 23.28125 14.824219 23.28125 14.824219 C 23.28125 14.824219 24.253906 17.640625 24.929688 14.648438 C 26.429688 9.03125 20.894531 3.804688 20.894531 2.417969 Z M 20.894531 2.417969 "/>
    <path style=" stroke:none;fill-rule:nonzero;fill:url(#radial1);" d="M 13.171875 25.753906 C 19.652344 25.753906 24.902344 20.476562 24.902344 13.96875 C 24.902344 7.460938 19.652344 2.183594 13.179688 2.183594 C 6.707031 2.183594 1.457031 7.460938 1.457031 13.96875 C 1.445312 20.480469 6.699219 25.753906 13.171875 25.753906 Z M 13.171875 25.753906 "/>
    <path style=" stroke:none;fill-rule:nonzero;fill:url(#linear0);" d="M 21.960938 21.234375 C 21.707031 21.414062 21.441406 21.574219 21.164062 21.714844 C 21.53125 21.179688 21.871094 20.621094 22.179688 20.050781 C 22.429688 19.773438 22.65625 19.503906 22.84375 19.214844 C 22.933594 19.070312 23.035156 18.894531 23.144531 18.691406 C 23.804688 17.503906 24.53125 15.585938 24.550781 13.613281 L 24.550781 13.609375 C 24.550781 13.558594 24.550781 13.511719 24.550781 13.460938 C 24.554688 12.96875 24.503906 12.472656 24.398438 11.988281 C 24.40625 12.027344 24.410156 12.066406 24.414062 12.101562 C 24.410156 12.074219 24.402344 12.042969 24.398438 12.015625 C 24.40625 12.070312 24.414062 12.121094 24.421875 12.171875 C 24.558594 13.316406 24.460938 14.429688 23.980469 15.25 C 23.976562 15.261719 23.96875 15.273438 23.960938 15.285156 C 24.207031 14.035156 24.292969 12.660156 24.015625 11.277344 C 24.015625 11.277344 23.902344 10.609375 23.078125 8.574219 C 22.605469 7.402344 21.761719 6.441406 21.019531 5.738281 C 20.367188 4.933594 19.773438 4.390625 19.449219 4.046875 C 18.765625 3.328125 18.480469 2.789062 18.363281 2.4375 C 18.261719 2.386719 16.957031 1.121094 16.855469 1.074219 C 16.285156 1.957031 14.5 4.710938 15.347656 7.289062 C 15.734375 8.453125 16.707031 9.667969 17.730469 10.347656 C 17.773438 10.398438 18.335938 11.007812 18.601562 12.382812 C 18.878906 13.808594 18.734375 14.917969 18.164062 16.558594 C 17.496094 18 15.785156 19.421875 14.183594 19.570312 C 10.757812 19.878906 9.503906 17.847656 9.503906 17.847656 C 10.726562 18.335938 12.082031 18.234375 12.902344 17.726562 C 13.734375 17.214844 14.234375 16.832031 14.640625 16.984375 C 15.042969 17.132812 15.363281 16.699219 15.078125 16.25 C 14.855469 15.910156 14.539062 15.640625 14.164062 15.476562 C 13.792969 15.316406 13.378906 15.265625 12.980469 15.335938 C 12.148438 15.472656 11.386719 16.128906 10.300781 15.492188 C 10.230469 15.453125 10.160156 15.40625 10.09375 15.359375 C 10.023438 15.3125 10.328125 15.429688 10.257812 15.378906 C 10.046875 15.261719 9.671875 15.011719 9.574219 14.921875 C 9.558594 14.90625 9.738281 14.980469 9.722656 14.964844 C 8.703125 14.125 8.832031 13.5625 8.863281 13.207031 C 8.886719 12.921875 9.074219 12.558594 9.386719 12.410156 C 9.535156 12.492188 9.628906 12.554688 9.628906 12.554688 C 9.628906 12.554688 9.566406 12.425781 9.53125 12.355469 C 9.542969 12.347656 9.554688 12.351562 9.566406 12.347656 C 9.6875 12.40625 9.960938 12.558594 10.105469 12.652344 C 10.292969 12.785156 10.351562 12.902344 10.351562 12.902344 C 10.351562 12.902344 10.402344 12.875 10.363281 12.761719 C 10.351562 12.714844 10.292969 12.5625 10.109375 12.414062 L 10.121094 12.414062 C 10.230469 12.476562 10.335938 12.550781 10.433594 12.632812 C 10.488281 12.441406 10.582031 12.246094 10.558594 11.890625 C 10.546875 11.640625 10.554688 11.578125 10.507812 11.480469 C 10.46875 11.398438 10.53125 11.363281 10.597656 11.449219 C 10.589844 11.382812 10.566406 11.316406 10.542969 11.253906 L 10.542969 11.25 C 10.628906 10.953125 12.34375 10.179688 12.46875 10.089844 C 12.675781 9.945312 12.847656 9.757812 12.976562 9.539062 C 13.070312 9.386719 13.144531 9.175781 13.160156 8.851562 C 13.171875 8.617188 13.0625 8.460938 11.324219 8.277344 C 10.847656 8.230469 10.570312 7.886719 10.410156 7.570312 C 10.382812 7.5 10.351562 7.441406 10.324219 7.378906 C 10.296875 7.304688 10.273438 7.230469 10.257812 7.15625 C 10.539062 6.339844 11.019531 5.648438 11.71875 5.128906 C 11.757812 5.09375 11.566406 5.136719 11.605469 5.101562 C 11.648438 5.0625 11.941406 4.945312 11.996094 4.917969 C 12.0625 4.886719 11.707031 4.734375 11.394531 4.773438 C 11.074219 4.808594 11.007812 4.847656 10.839844 4.917969 C 10.910156 4.847656 11.132812 4.757812 11.082031 4.757812 C 10.738281 4.808594 10.308594 5.007812 9.945312 5.234375 C 9.945312 5.195312 9.953125 5.15625 9.964844 5.121094 C 9.796875 5.191406 9.378906 5.484375 9.257812 5.730469 C 9.261719 5.683594 9.265625 5.636719 9.261719 5.589844 C 9.132812 5.699219 9.015625 5.820312 8.914062 5.953125 L 8.910156 5.960938 C 7.921875 5.5625 7.054688 5.535156 6.316406 5.714844 C 6.15625 5.554688 6.078125 5.671875 5.710938 4.867188 C 5.6875 4.820312 5.730469 4.914062 5.710938 4.867188 C 5.652344 4.710938 5.75 5.074219 5.710938 4.867188 C 5.097656 5.351562 4.289062 5.902344 3.898438 6.292969 C 3.894531 6.308594 4.351562 6.164062 3.898438 6.292969 C 3.742188 6.335938 3.75 6.429688 3.726562 7.28125 C 3.722656 7.347656 3.726562 7.417969 3.722656 7.476562 C 3.410156 7.875 3.199219 8.207031 3.121094 8.382812 C 2.71875 9.074219 2.277344 10.152344 1.847656 11.859375 C 2.035156 11.394531 2.265625 10.949219 2.527344 10.527344 C 2.171875 11.429688 1.828125 12.851562 1.757812 15.042969 C 1.84375 14.589844 1.957031 14.144531 2.089844 13.703125 C 2.003906 15.519531 2.320312 17.332031 3.007812 19.015625 C 3.253906 19.621094 3.664062 20.535156 4.355469 21.539062 C 6.535156 23.832031 9.613281 25.261719 13.019531 25.261719 C 16.574219 25.261719 19.769531 23.703125 21.960938 21.234375 Z M 21.960938 21.234375 "/>
    <path style=" stroke:none;fill-rule:nonzero;fill:url(#radial2);" d="M 19.332031 22.902344 C 23.632812 22.402344 25.539062 17.96875 23.09375 17.878906 C 20.882812 17.808594 17.292969 23.136719 19.332031 22.902344 Z M 19.332031 22.902344 "/>
    <path style=" stroke:none;fill-rule:nonzero;fill:url(#radial3);" d="M 23.402344 16.976562 C 26.363281 15.25 25.589844 11.53125 25.589844 11.53125 C 25.589844 11.53125 24.449219 12.855469 23.671875 14.972656 C 22.90625 17.066406 21.621094 18.015625 23.402344 16.976562 Z M 23.402344 16.976562 "/>
    <path style=" stroke:none;fill-rule:nonzero;fill:url(#radial4);" d="M 14.003906 25.101562 C 18.132812 26.421875 21.679688 23.167969 19.492188 22.082031 C 17.503906 21.101562 12.042969 24.480469 14.003906 25.101562 Z M 14.003906 25.101562 "/>
    <path style=" stroke:none;fill-rule:nonzero;fill:url(#radial5);" d="M 23.710938 18.554688 C 23.8125 18.414062 23.945312 17.960938 24.066406 17.757812 C 24.796875 16.582031 24.800781 15.640625 24.800781 15.621094 C 25.242188 13.421875 25.199219 12.523438 24.929688 10.863281 C 24.710938 9.527344 23.757812 7.609375 22.933594 6.6875 C 22.082031 5.738281 22.683594 6.046875 21.859375 5.355469 C 21.136719 4.554688 20.4375 3.761719 20.054688 3.441406 C 17.300781 1.136719 17.363281 0.648438 17.414062 0.566406 C 17.40625 0.574219 17.394531 0.589844 17.375 0.609375 C 17.34375 0.480469 17.320312 0.371094 17.320312 0.371094 C 17.320312 0.371094 15.8125 1.875 15.496094 4.386719 C 15.289062 6.023438 15.902344 7.734375 16.792969 8.824219 C 17.253906 9.390625 17.777344 9.90625 18.351562 10.359375 L 18.351562 10.355469 C 19.023438 11.320312 19.390625 12.511719 19.390625 13.789062 C 19.390625 16.992188 16.792969 19.589844 13.585938 19.589844 C 13.152344 19.589844 12.714844 19.542969 12.289062 19.445312 C 10.777344 19.15625 9.902344 18.394531 9.46875 17.875 C 9.21875 17.578125 9.113281 17.363281 9.113281 17.363281 C 10.46875 17.847656 11.964844 17.746094 12.875 17.242188 C 13.792969 16.734375 14.351562 16.355469 14.800781 16.503906 C 15.246094 16.652344 15.597656 16.222656 15.28125 15.777344 C 14.972656 15.332031 14.160156 14.695312 12.960938 14.871094 C 12.039062 15.003906 11.199219 15.65625 9.996094 15.027344 C 9.917969 14.984375 9.839844 14.941406 9.769531 14.894531 C 9.6875 14.847656 10.027344 14.964844 9.949219 14.910156 C 9.714844 14.796875 9.296875 14.546875 9.191406 14.460938 C 9.171875 14.445312 9.371094 14.515625 9.355469 14.503906 C 8.226562 13.671875 8.367188 13.109375 8.40625 12.757812 C 8.433594 12.476562 8.636719 12.117188 8.980469 11.96875 C 9.148438 12.050781 9.253906 12.113281 9.253906 12.113281 C 9.253906 12.113281 9.179688 11.984375 9.144531 11.914062 C 9.15625 11.910156 9.167969 11.910156 9.183594 11.90625 C 9.320312 11.964844 9.621094 12.117188 9.777344 12.210938 C 9.984375 12.339844 10.050781 12.457031 10.050781 12.457031 C 10.050781 12.457031 10.105469 12.429688 10.066406 12.316406 C 10.050781 12.269531 9.988281 12.121094 9.785156 11.972656 L 9.796875 11.972656 C 9.917969 12.035156 10.035156 12.109375 10.144531 12.1875 C 10.203125 12 10.304688 11.804688 10.28125 11.453125 C 10.269531 11.207031 10.273438 11.140625 10.226562 11.046875 C 10.183594 10.964844 10.25 10.933594 10.328125 11.019531 C 10.3125 10.949219 10.292969 10.886719 10.261719 10.824219 L 10.261719 10.816406 C 10.355469 10.523438 12.257812 9.757812 12.398438 9.667969 C 12.621094 9.527344 12.808594 9.34375 12.957031 9.121094 C 13.0625 8.972656 13.140625 8.761719 13.160156 8.4375 C 13.167969 8.292969 13.121094 8.179688 12.621094 8.070312 C 12.316406 8.003906 11.847656 7.941406 11.128906 7.871094 C 10.601562 7.824219 10.292969 7.484375 10.117188 7.167969 C 10.085938 7.101562 10.054688 7.039062 10.019531 6.976562 C 9.988281 6.90625 9.964844 6.832031 9.945312 6.757812 C 10.261719 5.933594 10.828125 5.230469 11.566406 4.746094 C 11.609375 4.714844 11.394531 4.757812 11.4375 4.722656 C 11.488281 4.683594 11.808594 4.566406 11.871094 4.539062 C 11.945312 4.507812 11.554688 4.359375 11.207031 4.394531 C 10.851562 4.429688 10.777344 4.46875 10.589844 4.539062 C 10.667969 4.46875 10.917969 4.378906 10.859375 4.378906 C 10.476562 4.429688 10.003906 4.628906 9.601562 4.855469 C 9.601562 4.816406 9.609375 4.777344 9.625 4.738281 C 9.4375 4.8125 8.972656 5.101562 8.839844 5.347656 C 8.84375 5.300781 8.847656 5.253906 8.847656 5.207031 C 8.707031 5.3125 8.578125 5.433594 8.460938 5.566406 L 8.453125 5.574219 C 7.363281 5.179688 6.402344 5.152344 5.585938 5.328125 C 5.410156 5.167969 5.121094 4.925781 4.71875 4.128906 C 4.691406 4.082031 4.675781 4.230469 4.65625 4.183594 C 4.496094 3.816406 4.402344 3.21875 4.417969 2.808594 C 4.417969 2.808594 4.09375 2.957031 3.824219 3.574219 C 3.773438 3.6875 3.742188 3.746094 3.707031 3.808594 C 3.695312 3.828125 3.742188 3.605469 3.734375 3.617188 C 3.6875 3.695312 3.566406 3.808594 3.511719 3.949219 C 3.476562 4.058594 3.425781 4.117188 3.394531 4.25 L 3.386719 4.261719 C 3.382812 4.222656 3.394531 4.101562 3.386719 4.125 C 3.257812 4.378906 3.152344 4.644531 3.0625 4.914062 C 2.914062 5.390625 2.746094 6.039062 2.71875 6.882812 C 2.714844 6.949219 2.71875 7.019531 2.714844 7.078125 C 2.371094 7.46875 2.136719 7.800781 2.046875 7.972656 C 1.601562 8.660156 1.113281 9.730469 0.640625 11.421875 C 0.851562 10.960938 1.101562 10.515625 1.394531 10.101562 C 1 11 0.617188 12.410156 0.542969 14.578125 C 0.636719 14.128906 0.761719 13.6875 0.90625 13.253906 C 0.839844 14.699219 1.007812 16.496094 1.925781 18.519531 C 2.46875 19.710938 3.71875 22.132812 6.777344 24.019531 C 6.777344 24.019531 7.816406 24.792969 9.601562 25.375 C 9.734375 25.421875 9.871094 25.46875 10.003906 25.515625 C 9.964844 25.496094 9.921875 25.480469 9.882812 25.460938 C 11.070312 25.816406 12.304688 26 13.546875 26 C 18.175781 26.003906 19.542969 24.144531 19.542969 24.144531 C 19.542969 24.144531 19.539062 24.148438 19.527344 24.15625 C 19.59375 24.09375 19.65625 24.03125 19.71875 23.964844 C 18.988281 24.652344 17.320312 24.699219 16.699219 24.648438 C 17.761719 24.335938 18.460938 24.074219 19.820312 23.550781 C 19.980469 23.492188 20.140625 23.425781 20.308594 23.351562 C 20.328125 23.34375 20.34375 23.332031 20.363281 23.324219 C 20.394531 23.308594 20.429688 23.296875 20.460938 23.277344 C 21.125 22.96875 21.746094 22.578125 22.316406 22.117188 C 23.683594 21.027344 23.980469 19.960938 24.136719 19.261719 C 24.117188 19.328125 24.046875 19.484375 24 19.585938 C 23.648438 20.339844 22.867188 20.800781 22.019531 21.195312 C 22.425781 20.667969 22.796875 20.117188 23.140625 19.546875 C 23.417969 19.273438 23.503906 18.84375 23.710938 18.554688 Z M 23.710938 18.554688 "/>
    <path style=" stroke:none;fill-rule:nonzero;fill:url(#radial6);" d="M 22.046875 21.164062 C 22.605469 20.550781 23.105469 19.847656 23.484375 19.050781 C 24.460938 17 25.964844 13.59375 24.777344 10.03125 C 23.839844 7.21875 22.550781 5.679688 20.917969 4.179688 C 18.261719 1.738281 17.519531 0.648438 17.519531 0 C 17.519531 0 14.449219 3.417969 15.78125 6.984375 C 17.109375 10.550781 19.835938 10.421875 21.636719 14.144531 C 23.757812 18.523438 19.921875 23.300781 16.75 24.640625 C 16.941406 24.597656 23.804688 23.042969 24.164062 19.121094 C 24.15625 19.191406 24 20.277344 22.046875 21.164062 Z M 22.046875 21.164062 "/>
    <path style=" stroke:none;fill-rule:nonzero;fill:url(#linear1);" d="M 13.160156 8.4375 C 13.171875 8.207031 13.050781 8.050781 11.132812 7.871094 C 10.347656 7.796875 10.042969 7.070312 9.953125 6.761719 C 9.671875 7.492188 9.554688 8.257812 9.617188 9.179688 C 9.660156 9.785156 10.066406 10.4375 10.261719 10.816406 C 10.261719 10.816406 10.304688 10.761719 10.324219 10.742188 C 10.691406 10.359375 12.226562 9.777344 12.371094 9.695312 C 12.527344 9.59375 13.132812 9.152344 13.160156 8.4375 Z M 13.160156 8.4375 "/>
    <path style=" stroke:none;fill-rule:nonzero;fill:url(#linear2);" d="M 4.726562 4.132812 C 4.699219 4.085938 4.683594 4.234375 4.660156 4.1875 C 4.503906 3.820312 4.410156 3.230469 4.429688 2.8125 C 4.429688 2.8125 4.105469 2.960938 3.835938 3.578125 C 3.785156 3.691406 3.753906 3.753906 3.722656 3.8125 C 3.707031 3.832031 3.753906 3.609375 3.746094 3.621094 C 3.699219 3.703125 3.578125 3.8125 3.527344 3.949219 C 3.484375 4.0625 3.4375 4.121094 3.40625 4.261719 C 3.394531 4.296875 3.414062 4.09375 3.40625 4.117188 C 2.78125 5.328125 2.660156 7.160156 2.726562 7.082031 C 4.058594 5.660156 5.589844 5.320312 5.589844 5.320312 C 5.425781 5.199219 5.074219 4.855469 4.726562 4.132812 Z M 4.726562 4.132812 "/>
    <path style=" stroke:none;fill-rule:nonzero;fill:url(#linear3);" d="M 9.785156 19.027344 C 7.941406 18.242188 5.847656 17.132812 5.925781 14.609375 C 6.035156 11.292969 9.023438 11.949219 9.023438 11.949219 C 8.910156 11.976562 8.609375 12.191406 8.503906 12.417969 C 8.390625 12.703125 8.183594 13.351562 8.808594 14.027344 C 9.789062 15.089844 6.792969 16.546875 11.414062 19.300781 C 11.53125 19.363281 10.332031 19.261719 9.785156 19.027344 Z M 9.785156 19.027344 "/>
    <path style=" stroke:none;fill-rule:nonzero;fill:url(#linear4);" d="M 9.128906 17.371094 C 10.4375 17.828125 11.960938 17.746094 12.871094 17.246094 C 13.480469 16.90625 14.261719 16.359375 14.742188 16.496094 C 14.328125 16.332031 14.011719 16.253906 13.632812 16.234375 C 13.566406 16.234375 13.488281 16.234375 13.417969 16.226562 C 13.28125 16.226562 13.140625 16.234375 13.003906 16.25 C 12.765625 16.269531 12.507812 16.417969 12.269531 16.394531 C 12.257812 16.394531 12.5 16.296875 12.480469 16.300781 C 12.355469 16.328125 12.21875 16.332031 12.074219 16.351562 C 11.980469 16.359375 11.902344 16.371094 11.8125 16.375 C 9.089844 16.605469 6.792969 14.902344 6.792969 14.902344 C 6.597656 15.558594 7.667969 16.863281 9.128906 17.371094 Z M 9.128906 17.371094 "/>
    <path style=" stroke:none;fill-rule:nonzero;fill:url(#linear5);" d="M 22.042969 21.183594 C 24.796875 18.480469 26.1875 15.195312 25.597656 11.511719 C 25.597656 11.511719 25.835938 13.398438 24.941406 15.332031 C 25.371094 13.445312 25.421875 11.101562 24.28125 8.671875 C 22.761719 5.433594 20.265625 3.726562 19.3125 3.015625 C 17.867188 1.9375 17.265625 0.84375 17.257812 0.617188 C 16.824219 1.5 15.519531 4.53125 17.117188 7.140625 C 18.613281 9.585938 20.96875 10.3125 22.621094 12.558594 C 25.660156 16.691406 22.042969 21.183594 22.042969 21.183594 Z M 22.042969 21.183594 "/>
    <path style=" stroke:none;fill-rule:nonzero;fill:url(#linear6);" d="M 21.648438 14.152344 C 20.6875 12.164062 19.484375 11.296875 18.351562 10.359375 C 18.484375 10.542969 18.515625 10.609375 18.589844 10.726562 C 19.585938 11.792969 21.0625 14.390625 19.992188 17.652344 C 17.976562 23.792969 9.921875 20.902344 9.074219 20.089844 C 9.417969 23.644531 15.367188 25.34375 19.238281 23.039062 C 21.441406 20.953125 23.222656 17.40625 21.648438 14.152344 Z M 21.648438 14.152344 "/>
  </g>
</svg>