<?xml version="1.0" encoding="UTF-8" standalone="yes"?>
<svg xmlns="http://www.w3.org/2000/svg" xmlns:xlink="http://www.w3.org/1999/xlink" width="26" height="26" viewBox="0 0 26 26" version="1.1">
  <defs>
    <filter id="alpha" filterUnits="objectBoundingBox" x="0%" y="0%" width="100%" height="100%">
      <feColorMatrix type="matrix" in="SourceGraphic" values="0 0 0 0 1 0 0 0 0 1 0 0 0 0 1 0 0 0 1 0"/>
    </filter>
    <mask id="mask0">
      <g filter="url(#alpha)">
        <rect x="0" y="0" width="26" height="26" style="fill:rgb(0%,0%,0%);fill-opacity:0.1;stroke:none;"/>
      </g>
    </mask>
    <clipPath id="clip1">
      <rect x="0" y="0" width="26" height="26"/>
    </clipPath>
    <g id="surface5" clip-path="url(#clip1)">
      <path style=" stroke:none;fill-rule:nonzero;fill:rgb(13.725491%,12.156863%,12.54902%);fill-opacity:1;" d="M 8.125 18 L 12.980469 14.09375 L 13.015625 13.886719 L 8.007812 10.28125 L 7.996094 17.824219 Z M 8.125 18 "/>
    </g>
    <linearGradient id="linear0" gradientUnits="userSpaceOnUse" x1="12.1294" y1="33.231899" x2="35.975201" y2="33.231899" gradientTransform="matrix(0.541667,0,0,0.541667,0,0)">
      <stop offset="0" style="stop-color:rgb(0%,0%,0%);stop-opacity:0.101961;"/>
      <stop offset="1" style="stop-color:rgb(0%,0%,0%);stop-opacity:0.2;"/>
    </linearGradient>
  </defs>
  <g id="surface1">
    <path style=" stroke:none;fill-rule:nonzero;fill:rgb(100%,100%,100%);fill-opacity:1;" d="M 0 13 C 0 5.820312 5.820312 0 13 0 C 20.179688 0 26 5.820312 26 13 C 26 20.179688 20.179688 26 13 26 C 5.820312 26 0 20.179688 0 13 Z M 0 13 "/>
    <path style=" stroke:none;fill-rule:nonzero;fill:rgb(89.019608%,89.019608%,89.019608%);fill-opacity:1;" d="M 18.671875 18 L 7.3125 18 C 6.871094 18 6.5 17.640625 6.5 17.1875 L 6.5 8.984375 C 6.5 8.542969 6.859375 8.171875 7.3125 8.171875 L 18.671875 8.171875 C 19.113281 8.171875 19.480469 8.53125 19.480469 8.984375 L 19.480469 17.1875 C 19.480469 17.640625 19.125 18 18.671875 18 Z M 18.671875 18 "/>
    <path style=" stroke:none;fill-rule:nonzero;fill:rgb(83.529413%,29.411766%,23.921569%);fill-opacity:1;" d="M 7.3125 18 C 6.859375 18 6.5 17.640625 6.5 17.1875 L 6.5 8.972656 C 6.5 8.519531 6.859375 8.4375 7.3125 8.4375 C 7.765625 8.4375 8.125 8.53125 8.125 8.972656 L 8.125 18 Z M 7.3125 18 "/>
    <path style=" stroke:none;fill-rule:evenodd;fill:rgb(84.313726%,16.862746%,15.294118%);fill-opacity:1;" d="M 6.5 8.972656 C 6.5 8.53125 6.859375 8.4375 7.3125 8.4375 C 7.765625 8.4375 8.125 8.519531 8.125 8.972656 L 8.125 18 L 7.3125 18 C 6.859375 18 6.5 17.640625 6.5 17.1875 Z M 8.007812 8.972656 C 8.007812 8.726562 7.890625 8.554688 7.3125 8.554688 C 6.734375 8.554688 6.617188 8.714844 6.617188 8.972656 L 6.617188 17.1875 C 6.617188 17.570312 6.929688 17.882812 7.3125 17.882812 L 8.007812 17.882812 Z M 8.007812 8.972656 "/>
    <path style=" stroke:none;fill-rule:nonzero;fill:rgb(83.529413%,29.411766%,23.921569%);fill-opacity:1;" d="M 18.671875 18 L 17.859375 18 L 17.859375 8.949219 C 17.859375 8.496094 18.21875 8.4375 18.671875 8.4375 C 19.125 8.4375 19.480469 8.496094 19.480469 8.949219 L 19.480469 17.199219 C 19.480469 17.640625 19.125 18 18.671875 18 Z M 18.671875 18 "/>
    <path style=" stroke:none;fill-rule:evenodd;fill:rgb(84.313726%,16.862746%,15.294118%);fill-opacity:1;" d="M 17.859375 8.949219 C 17.859375 8.496094 18.21875 8.4375 18.671875 8.4375 C 19.125 8.4375 19.480469 8.496094 19.480469 8.949219 L 19.480469 17.199219 C 19.480469 17.652344 19.125 18.011719 18.671875 18.011719 L 17.859375 18.011719 Z M 19.367188 8.949219 C 19.367188 8.65625 19.191406 8.554688 18.671875 8.554688 C 18.148438 8.554688 17.976562 8.648438 17.976562 8.949219 L 17.976562 17.894531 L 18.671875 17.894531 C 19.054688 17.894531 19.367188 17.582031 19.367188 17.199219 Z M 19.367188 8.949219 "/>
    <path style=" stroke:none;fill-rule:nonzero;fill:url(#linear0);" d="M 15.195312 18 L 6.570312 9.308594 L 7.023438 9.492188 L 13.027344 13.816406 L 19.480469 9.082031 L 19.480469 17.199219 C 19.480469 17.640625 19.125 18 18.671875 18 Z M 15.195312 18 "/>
    <path style=" stroke:none;fill-rule:nonzero;fill:rgb(83.529413%,29.411766%,23.921569%);fill-opacity:1;" d="M 12.980469 14.09375 L 6.847656 9.644531 C 6.488281 9.375 6.386719 8.867188 6.652344 8.507812 C 6.917969 8.148438 7.441406 8.066406 7.8125 8.332031 L 12.992188 12.101562 L 18.207031 8.289062 C 18.566406 8.019531 19.078125 8.101562 19.34375 8.472656 C 19.609375 8.832031 19.527344 9.34375 19.15625 9.609375 Z M 12.980469 14.09375 "/>
    <path style=" stroke:none;fill-rule:evenodd;fill:rgb(84.313726%,16.862746%,15.294118%);fill-opacity:1;" d="M 18.195312 8.277344 C 18.335938 8.171875 18.507812 8.125 18.671875 8.125 C 18.925781 8.125 19.167969 8.242188 19.332031 8.472656 C 19.585938 8.84375 19.503906 9.34375 19.144531 9.609375 L 12.980469 14.105469 L 6.847656 9.644531 C 6.488281 9.375 6.386719 8.867188 6.640625 8.507812 C 6.804688 8.289062 7.058594 8.171875 7.3125 8.171875 C 7.488281 8.171875 7.660156 8.21875 7.800781 8.320312 L 12.980469 12.089844 Z M 19.238281 8.53125 C 19.101562 8.34375 18.890625 8.242188 18.671875 8.242188 C 18.519531 8.242188 18.382812 8.289062 18.253906 8.367188 L 13.050781 12.179688 L 12.980469 12.226562 L 12.910156 12.179688 L 7.742188 8.425781 C 7.625 8.332031 7.476562 8.289062 7.324219 8.289062 C 7.09375 8.289062 6.871094 8.402344 6.746094 8.578125 C 6.523438 8.878906 6.605469 9.320312 6.917969 9.550781 L 12.980469 13.953125 L 19.089844 9.503906 C 19.390625 9.273438 19.460938 8.84375 19.238281 8.53125 Z M 19.238281 8.53125 "/>
    <use xlink:href="#surface5" mask="url(#mask0)"/>
  </g>
</svg>