<?xml version="1.0" encoding="UTF-8" standalone="yes"?>
<svg xmlns="http://www.w3.org/2000/svg" xmlns:xlink="http://www.w3.org/1999/xlink" width="26" height="26" viewBox="0 0 26 26" version="1.1">
  <g id="surface1">
    <path style=" stroke:none;fill-rule:nonzero;fill:rgb(0%,46.666667%,70.980394%);fill-opacity:1;" d="M 0 13 C 0 5.820312 5.820312 0 13 0 C 20.179688 0 26 5.820312 26 13 C 26 20.179688 20.179688 26 13 26 C 5.820312 26 0 20.179688 0 13 Z M 0 13 "/>
    <path style=" stroke:none;fill-rule:evenodd;fill:rgb(100%,100%,100%);fill-opacity:1;" d="M 9.382812 8.027344 C 9.382812 8.878906 8.742188 9.558594 7.714844 9.558594 L 7.695312 9.558594 C 6.707031 9.558594 6.066406 8.878906 6.066406 8.027344 C 6.066406 7.160156 6.726562 6.5 7.734375 6.5 C 8.742188 6.5 9.363281 7.160156 9.382812 8.027344 Z M 9.1875 10.765625 L 9.1875 19.617188 L 6.242188 19.617188 L 6.242188 10.765625 Z M 19.8125 19.617188 L 19.8125 14.542969 C 19.8125 11.824219 18.359375 10.558594 16.417969 10.558594 C 14.855469 10.558594 14.15625 11.417969 13.765625 12.019531 L 13.765625 10.765625 L 10.816406 10.765625 C 10.855469 11.597656 10.816406 19.621094 10.816406 19.621094 L 13.765625 19.621094 L 13.765625 14.675781 C 13.765625 14.410156 13.785156 14.148438 13.859375 13.957031 C 14.074219 13.429688 14.558594 12.882812 15.371094 12.882812 C 16.4375 12.882812 16.867188 13.695312 16.867188 14.882812 L 16.867188 19.617188 Z M 19.8125 19.617188 "/>
  </g>
</svg>