<?xml version="1.0" encoding="UTF-8" standalone="yes"?>
<svg xmlns="http://www.w3.org/2000/svg" xmlns:xlink="http://www.w3.org/1999/xlink" width="26" height="26" viewBox="0 0 26 26" version="1.1">
  <g id="surface1">
    <path style=" stroke:none;fill-rule:nonzero;fill:rgb(97.254902%,60.000002%,11.372549%);fill-opacity:1;" d="M 0 13 C 0 5.820312 5.820312 0 13 0 C 20.179688 0 26 5.820312 26 13 C 26 20.179688 20.179688 26 13 26 C 5.820312 26 0 20.179688 0 13 Z M 0 13 "/>
    <path style=" stroke:none;fill-rule:evenodd;fill:rgb(100%,100%,100%);fill-opacity:1;" d="M 19.933594 18.199219 L 17.621094 18.199219 C 17.621094 12.785156 13.214844 8.378906 7.800781 8.378906 L 7.800781 6.066406 C 14.492188 6.066406 19.933594 11.511719 19.933594 18.199219 Z M 7.800781 16.464844 C 7.800781 15.507812 8.578125 14.734375 9.535156 14.734375 C 10.492188 14.734375 11.265625 15.507812 11.265625 16.464844 C 11.265625 17.425781 10.492188 18.199219 9.535156 18.199219 C 8.578125 18.199219 7.800781 17.425781 7.800781 16.464844 Z M 13.578125 18.199219 L 15.890625 18.199219 C 15.890625 13.738281 12.261719 10.109375 7.800781 10.109375 L 7.800781 12.421875 C 10.984375 12.421875 13.578125 15.015625 13.578125 18.199219 Z M 13.578125 18.199219 "/>
  </g>
</svg>