<?xml version="1.0" encoding="UTF-8" standalone="yes"?>
<svg xmlns="http://www.w3.org/2000/svg" xmlns:xlink="http://www.w3.org/1999/xlink" width="26" height="26" viewBox="0 0 26 26" version="1.1">
  <g id="surface1">
    <path style=" stroke:none;fill-rule:nonzero;fill:rgb(33.333334%,67.450982%,93.333334%);fill-opacity:1;" d="M 0 13 C 0 5.820312 5.820312 0 13 0 C 20.179688 0 26 5.820312 26 13 C 26 20.179688 20.179688 26 13 26 C 5.820312 26 0 20.179688 0 13 Z M 0 13 "/>
    <path style=" stroke:none;fill-rule:nonzero;fill:rgb(100%,100%,100%);fill-opacity:1;" d="M 12.609375 10.566406 L 12.636719 11.015625 L 12.183594 10.960938 C 10.527344 10.75 9.082031 10.035156 7.855469 8.832031 L 7.253906 8.234375 L 7.101562 8.675781 C 6.773438 9.65625 6.980469 10.695312 7.664062 11.394531 C 8.027344 11.777344 7.945312 11.832031 7.320312 11.605469 C 7.101562 11.53125 6.910156 11.476562 6.890625 11.503906 C 6.828125 11.566406 7.046875 12.402344 7.21875 12.734375 C 7.453125 13.191406 7.9375 13.640625 8.464844 13.90625 L 8.910156 14.121094 L 8.382812 14.128906 C 7.875 14.128906 7.855469 14.136719 7.910156 14.332031 C 8.089844 14.925781 8.808594 15.5625 9.609375 15.835938 L 10.171875 16.027344 L 9.683594 16.324219 C 8.957031 16.746094 8.101562 16.984375 7.246094 17 C 6.835938 17.011719 6.5 17.046875 6.5 17.074219 C 6.5 17.167969 7.609375 17.679688 8.253906 17.882812 C 10.191406 18.480469 12.492188 18.222656 14.21875 17.203125 C 15.449219 16.480469 16.675781 15.039062 17.25 13.640625 C 17.558594 12.898438 17.867188 11.539062 17.867188 10.886719 C 17.867188 10.464844 17.894531 10.410156 18.402344 9.90625 C 18.703125 9.613281 18.984375 9.289062 19.039062 9.199219 C 19.128906 9.023438 19.121094 9.023438 18.65625 9.179688 C 17.882812 9.457031 17.777344 9.417969 18.15625 9.007812 C 18.4375 8.710938 18.777344 8.179688 18.777344 8.023438 C 18.777344 7.996094 18.640625 8.042969 18.484375 8.125 C 18.320312 8.214844 17.957031 8.355469 17.683594 8.4375 L 17.195312 8.59375 L 16.75 8.289062 C 16.503906 8.125 16.15625 7.941406 15.976562 7.886719 C 15.511719 7.757812 14.800781 7.777344 14.382812 7.921875 C 13.246094 8.335938 12.527344 9.402344 12.609375 10.566406 Z M 12.609375 10.566406 "/>
  </g>
</svg>